<svg version="1.1" viewBox="0.0 0.0 576.0 576.0" fill="none" stroke="none" stroke-linecap="square" stroke-miterlimit="10" xmlns:xlink="http://www.w3.org/1999/xlink" xmlns="http://www.w3.org/2000/svg"><clipPath id="p.0"><path d="m0 0l576.0 0l0 576.0l-576.0 0l0 -576.0z" clip-rule="nonzero"/></clipPath><g clip-path="url(#p.0)"><path fill="#000000" fill-opacity="0.0" d="m0 0l576.0 0l0 576.0l-576.0 0z" fill-rule="evenodd"/><path fill="#000000" fill-opacity="0.0" d="m95.83465 173.0971l482.14172 0l0 42.015747l-482.14172 0z" fill-rule="evenodd"/><path fill="#000000" d="m108.60027 201.00148q-0.75 -0.1875 -1.25 -0.765625q-0.5 -0.578125 -0.75 -1.3125q-0.015625 -0.25 -0.015625 -0.65625q0 -0.421875 0.03125 -0.78125q0.03125 -0.359375 0.0625 -0.421875q0.0625 -0.03125 0.0625 -0.21875q-0.015625 -0.078125 0.03125 -0.25q0.046875 -0.171875 0.09375 -0.359375q0.09375 -0.234375 0.09375 -0.375q0 -0.140625 -0.015625 -0.203125q0 0 0.046875 -0.125q0.0625 -0.125 0.140625 -0.203125q0.109375 -0.109375 0.09375 -0.21875q0 -0.109375 0 -0.109375q-0.015625 -0.078125 0.03125 -0.203125q0.0625 -0.140625 0.109375 -0.203125q0.046875 -0.046875 0.109375 -0.15625q0.0625 -0.125 0.0625 -0.125q0 -0.0625 0.078125 -0.296875q0.09375 -0.25 0.203125 -0.53125q0.109375 -0.296875 0.203125 -0.53125q0.109375 -0.25 0.171875 -0.328125l0 -0.03125q0.078125 -0.1875 0.203125 -0.390625q0.015625 -0.09375 0.09375 -0.3125q0.078125 -0.21875 0.171875 -0.421875q0.203125 -0.453125 0.5 -1.015625q0.3125 -0.5625 0.671875 -1.125q0.359375 -0.578125 0.671875 -1.03125q0.328125 -0.46875 0.578125 -0.6875q0.3125 -0.359375 0.59375 -0.46875q0.28125 -0.109375 0.5625 0.171875q0.125 0.125 0.203125 0.359375q0.078125 0.234375 0.0625 0.421875q0 0.1875 -0.109375 0.203125q-0.140625 0.078125 -0.375 0.421875q-0.234375 0.34375 -0.53125 0.8125q-0.296875 0.46875 -0.5625 0.96875q-0.265625 0.484375 -0.5 0.875q-0.234375 0.546875 -0.453125 0.953125q-0.203125 0.390625 -0.203125 0.390625q-0.015625 0.0625 -0.03125 0.109375q-0.015625 0.03125 -0.03125 0.0625q-0.28125 0.578125 -0.46875 1.0625q-0.1875 0.46875 -0.375 0.984375q-0.109375 0.140625 -0.140625 0.265625q-0.015625 0.125 -0.015625 0.125q-0.03125 -0.015625 -0.046875 0.09375q-0.015625 0.09375 -0.078125 0.234375q-0.09375 0.0625 -0.109375 0.234375q-0.015625 0.15625 -0.015625 0.296875q-0.140625 0.34375 -0.25 0.828125q-0.109375 0.46875 -0.15625 0.90625q-0.046875 0.4375 -0.03125 0.671875q0.046875 0.328125 0.21875 0.546875q0.1875 0.21875 0.515625 0.375q0.203125 0.09375 0.359375 0.15625q0.15625 0.046875 0.296875 0.046875q0.140625 0.015625 0.375 0q0.234375 -0.03125 0.640625 -0.109375l-0.015625 0q0.25 -0.046875 0.515625 -0.109375q0.265625 -0.0625 0.515625 -0.125q0.21875 -0.03125 0.421875 -0.078125q0.203125 -0.046875 0.3125 -0.078125q0.421875 -0.125 0.65625 -0.1875q0.234375 -0.0625 0.328125 0.015625q0.078125 0.078125 0.15625 0.25q0.09375 0.15625 0.046875 0.328125q-0.046875 0.09375 -0.359375 0.34375q-0.296875 0.25 -0.71875 0.5q-0.40625 0.25 -0.75 0.375q-0.375 0.15625 -0.96875 0.234375q-0.578125 0.078125 -1.125 0.046875q-0.546875 -0.03125 -0.84375 -0.125zm6.385071 -1.46875q-0.078125 -0.15625 -0.28125 -0.28125q-0.203125 -0.125 -0.203125 -0.203125q0 -0.078125 -0.0625 -0.203125q-0.046875 -0.140625 -0.125 -0.203125q-0.09375 -0.125 0.046875 -0.546875q0.140625 -0.421875 0.421875 -1.03125q0.28125 -0.625 0.625 -1.28125q0.15625 -0.15625 0.296875 -0.390625q0.15625 -0.25 0.234375 -0.3125q0 -0.078125 0.046875 -0.140625q0.0625 -0.078125 0.140625 -0.078125l0.109375 -0.234375q0.015625 -0.078125 0.203125 -0.296875q0.1875 -0.21875 0.46875 -0.484375q0.28125 -0.28125 0.5625 -0.515625q0.28125 -0.25 0.46875 -0.359375q0.390625 -0.265625 0.796875 -0.265625q0.421875 -0.015625 0.71875 0.21875q0.0625 0.0625 0.234375 0.21875q0.1875 0.15625 0.40625 0.34375q0.21875 0.1875 0.40625 0.359375l0.6875 0.609375l-0.3125 0.9375q-0.234375 0.75 -0.125 1.3125q0.125 0.546875 0.359375 0.96875q0.078125 0.203125 0.28125 0.34375q0.21875 0.140625 0.46875 0.171875q0.15625 0.015625 0.28125 0.109375q0.140625 0.09375 0.140625 0.296875q0 0.359375 -0.140625 0.53125q-0.125 0.15625 -0.3125 0.203125q-0.609375 0.078125 -1.171875 -0.1875q-0.546875 -0.265625 -0.984375 -1.125q-0.078125 -0.109375 -0.203125 -0.40625q-0.125 -0.3125 -0.140625 -0.40625q-0.078125 0.09375 -0.234375 0.265625q-0.140625 0.171875 -0.25 0.296875q-1.328125 1.328125 -2.28125 1.75q-0.953125 0.421875 -1.578125 0.015625zm0.90625 -1.375q0.09375 0.046875 0.40625 -0.09375q0.328125 -0.15625 0.796875 -0.53125q0.625 -0.53125 1.109375 -0.984375q0.484375 -0.46875 0.890625 -1.03125l0.40625 -0.671875q-0.1875 -0.421875 -0.359375 -0.5625q-0.171875 -0.140625 -0.3125 -0.140625q-0.25 0 -0.640625 0.359375q-0.375 0.34375 -0.828125 1.0q-0.453125 0.640625 -0.984375 1.515625q-0.21875 0.390625 -0.359375 0.765625q-0.125 0.375 -0.125 0.375zm12.452217 1.984375q-0.078125 0 -0.203125 -0.015625q-0.109375 -0.015625 -0.18749237 -0.09375q-0.078125 0 -0.265625 -0.046875q-0.1875 -0.0625 -0.328125 -0.140625q-0.1875 -0.078125 -0.515625 -0.296875q-0.3125 -0.234375 -0.640625 -0.515625q-0.3125 -0.28125 -0.53125 -0.515625q-0.203125 -0.25 -0.203125 -0.359375q0 -0.09375 -0.09375 -0.09375q0 0 -0.0625 -0.0625q-0.046875 -0.078125 -0.046875 -0.15625q0 -0.171875 -0.1875 -0.171875q0 0 -0.28125 0.265625q-0.265625 0.25 -0.640625 0.625q-0.515625 0.515625 -0.765625 0.75q-0.25 0.234375 -0.40625 0.234375q-0.140625 0 -0.375 -0.125q-0.21875 -0.140625 -0.375 -0.34375q-0.15625 -0.21875 -0.15625 -0.5q0 0 0.375 -0.421875q0.390625 -0.4375 0.90625 -0.890625l1.03125 -1.015625l-0.203125 -0.71875q-0.140625 -0.296875 -0.28125 -0.609375q-0.140625 -0.328125 -0.203125 -0.5625q-0.234375 -0.3125 -0.25 -0.390625q0 -0.09375 0.15625 -0.3125l0 0l0 0q0.140625 -0.15625 0.40625 -0.265625q0.265625 -0.125 0.484375 0.015625q0.109375 0 0.296875 0.3125q0.1875 0.3125 0.34375 0.671875q0.15625 0.359375 0.15625 0.515625q0 0.296875 0.15625 0.296875q0.171875 -0.015625 0.609375 -0.3125q0.234375 -0.203125 0.359375 -0.34375q0.125 -0.140625 0.125 -0.140625q0.0625 -0.0625 0.34375 -0.265625q0.28125 -0.21875 0.578125 -0.4375q0.296875 -0.234375 0.390625 -0.296875q0.14061737 -0.109375 0.35936737 0q0.21875 0.09375 0.375 0.296875q0.15625 0.1875 0.15625 0.40625q0 0.21875 -0.125 0.4375q-0.109375 0.21875 -0.484375 0.4375q-0.34374237 0.234375 -0.5468674 0.40625q-0.203125 0.171875 -0.421875 0.359375q-0.21875 0.1875 -0.625 0.53125l-0.484375 0.390625l0.296875 0.515625q0.078125 0.125 0.21875 0.328125q0.140625 0.1875 0.265625 0.265625q0.109375 0.140625 0.40625 0.390625q0.296875 0.234375 0.5625 0.4375q0.28124237 0.1875 0.32811737 0.1875q0.0625 0 0.15625 0.0625q0.09375 0.0625 0.234375 0.125q0.140625 0.15625 0.140625 0.4375q0 0.28125 -0.09375 0.5q-0.09375 0.21875 -0.234375 0.21875zm1.4928436 -0.8125q-0.0625 -0.078125 -0.203125 -0.1875q-0.140625 -0.109375 -0.140625 -0.1875q0 -0.03125 -0.015625 -0.09375q0 -0.0625 -0.078125 -0.0625q-0.046875 -0.046875 0.078125 -0.40625q0.140625 -0.375 0.34375 -0.859375q0.21875 -0.5 0.46875 -0.953125q0.25 -0.46875 0.421875 -0.734375q0.09375 -0.0625 0.125 -0.15625q0.03125 -0.109375 -0.015625 -0.109375q0 0 0.09375 -0.171875q0.109375 -0.1875 0.171875 -0.234375q0.140625 -0.265625 0.21875 -0.53125q0.078125 -0.28125 0.046875 -0.46875q-0.078125 -0.09375 -0.171875 -0.046875q-0.09375 0.03125 -0.09375 0.03125q-0.078125 0.015625 -0.21875 0.0625q-0.140625 0.046875 -0.25 0.125q-0.421875 0.296875 -0.609375 0.296875q-0.1875 -0.015625 -0.375 -0.46875q-0.078125 -0.203125 -0.0625 -0.359375q0.015625 -0.15625 0.15625 -0.265625q0.140625 -0.140625 0.328125 -0.25q0.203125 -0.109375 0.28125 -0.171875q0.203125 -0.125 0.5 -0.234375q0.296875 -0.109375 0.375 -0.125q0.484375 -0.15625 0.8125 -0.03125q0.34375 0.125 0.515625 0.515625q0.265625 0.3125 0.265625 0.6875q0 0.375 -0.265625 0.890625l-0.1875 0.28125q-0.09375 0.1875 -0.03125 0.1875q0.0625 0 0.15625 -0.125q0.0625 -0.078125 0.21875 -0.21875q0.171875 -0.15625 0.234375 -0.15625q0 0 0.046875 -0.015625q0.046875 -0.03125 0.046875 -0.15625q0.0625 -0.0625 0.125 -0.109375q0.0625 -0.0625 0.0625 -0.0625q0.078125 0 0.21875 -0.109375q0.15625 -0.125 0.453125 -0.375q0.203125 -0.140625 0.375 -0.140625q0.421875 -0.140625 0.6875 0.28125q0.28125 0.40625 0.28125 1.0625l-0.390625 1.0l0.671875 -0.828125q0.109375 -0.140625 0.21875 -0.25q0.125 -0.109375 0.21875 -0.1875q0.046875 -0.140625 0.109375 -0.15625q0.078125 -0.015625 0.078125 -0.015625q0 0 0.03125 0q0.046875 -0.015625 0.046875 -0.078125q0.09375 -0.0625 0.203125 -0.125q0.109375 -0.078125 0.15625 -0.15625q0.3125 -0.125 0.6875 -0.03125q0.390625 0.078125 0.578125 0.46875q0.125 0.21875 0.203125 0.390625q0.09375 0.171875 0.09375 0.5q-0.03125 0.28125 -0.0625 0.421875q-0.03125 0.125 -0.046875 0.265625q-0.015625 0.140625 -0.0625 0.4375q-0.0625 0.140625 -0.078125 0.3125q-0.015625 0.171875 -0.015625 0.3125q0 0.25 0.015625 0.34375q0.03125 0.078125 0.15625 0.078125q0.265625 -0.0625 0.53125 -0.21875q0.28125 -0.15625 0.5 -0.359375q0.28125 -0.265625 0.484375 -0.140625q0.21875 0.109375 0.28125 0.34375q0.03125 0.078125 -0.109375 0.34375q-0.125 0.25 -0.28125 0.5q-0.15625 0.234375 -0.25 0.234375q-0.046875 0 -0.1875 0.140625q-0.140625 0.125 -0.234375 0.171875q-0.140625 0.140625 -0.265625 0.25q-0.109375 0.109375 -0.265625 0.109375q-0.0625 0 -0.171875 0.046875q-0.109375 0.046875 -0.234375 0.046875q-0.1875 0.0625 -0.578125 -0.046875q-0.375 -0.125 -0.484375 -0.53125q-0.078125 -0.203125 -0.1875 -0.5625q-0.109375 -0.375 -0.03125 -0.84375q0.0625 -0.328125 0.078125 -0.609375q0.03125 -0.28125 0.078125 -0.390625q0 -0.0625 0 -0.265625q0 -0.21875 -0.046875 -0.21875q-0.078125 0 -0.3125 0.21875q-0.21875 0.203125 -0.53125 0.5625q-0.296875 0.34375 -0.625 0.734375q-0.3125 0.375 -0.53125 0.71875q-0.171875 0.203125 -0.296875 0.515625q-0.125 0.296875 -0.1875 0.328125q-0.125 0.140625 -0.390625 0.03125q-0.265625 -0.109375 -0.40625 -0.34375q-0.0625 -0.125 -0.125 -0.15625q-0.046875 -0.046875 -0.0625 -0.15625q-0.015625 -0.125 0.046875 -0.40625q0.0625 -0.28125 0.25 -0.859375q0.203125 -0.625 0.359375 -1.140625q0.15625 -0.515625 0.15625 -0.515625q0 -0.078125 -0.28125 0.140625q-0.28125 0.21875 -0.640625 0.53125q-0.171875 0.203125 -0.5 0.5625q-0.3125 0.359375 -0.703125 0.8125q-0.375 0.453125 -0.796875 1.03125q-0.546875 0.765625 -0.796875 0.9375q-0.25 0.171875 -0.453125 -0.09375zm12.089508 0.484375q-0.390625 -0.015625 -0.671875 -0.453125q-0.28125 -0.4375 -0.359375 -0.984375q0.015625 -0.15625 0.046875 -0.421875q0.03125 -0.28125 0.0625 -0.59375q0.078125 -0.34375 0.21875 -0.875q0.140625 -0.546875 0.28125 -1.109375q0.140625 -0.5625 0.25 -0.953125q0.109375 -0.40625 0.125 -0.484375q0.125 -0.234375 0.4375 -0.109375q0.328125 0.109375 0.578125 0.4375q0.109375 0.15625 0.140625 0.359375q0.03125 0.203125 -0.0625 0.59375q-0.078125 0.390625 -0.296875 1.15625q-0.21875 0.75 -0.328125 1.203125q-0.09375 0.453125 -0.0625 0.96875q-0.078125 0.78125 -0.15625 1.03125q-0.0625 0.25 -0.203125 0.234375zm1.859375 -7.65625q-0.078125 0.0625 -0.140625 0.0625q-0.0625 -0.015625 -0.203125 -0.109375q-0.140625 -0.015625 -0.34375 -0.171875q-0.1875 -0.15625 -0.328125 -0.328125q-0.140625 -0.171875 -0.140625 -0.21875q-0.015625 -0.1875 0.03125 -0.546875q0.046875 -0.375 0.1875 -0.6875q0.15625 -0.328125 0.4375 -0.34375q0.078125 0 0.265625 0.0625q0.1875 0.046875 0.46875 0.15625q0.140625 0.28125 0.28125 0.703125q0.140625 0.40625 0.0625 0.796875q-0.078125 0.390625 -0.578125 0.625zm1.4287872 8.5q-0.171875 0.15625 -0.25 0.25q-0.0625 0.09375 -0.203125 -0.015625q-0.078125 -0.09375 -0.265625 -0.234375q-0.1875 -0.140625 -0.34375 -0.3125q-0.140625 -0.15625 -0.171875 -0.296875q0 -0.203125 0.140625 -0.765625q0.15625 -0.578125 0.390625 -1.3125q0.234375 -0.734375 0.484375 -1.453125q0.25 -0.71875 0.4375 -1.203125q0.125 -0.328125 0.21875 -0.578125q0.09375 -0.265625 0.15625 -0.40625q0.078125 -0.203125 0.265625 -0.59375q0.203125 -0.390625 0.40625 -0.8125q0.21875 -0.421875 0.359375 -0.71875q0.15625 -0.296875 0.15625 -0.296875q0.015625 -0.140625 0.1875 -0.515625q0.171875 -0.390625 0.4375 -0.90625q0.265625 -0.53125 0.546875 -1.046875q0.296875 -0.515625 0.53125 -0.921875q0.265625 -0.390625 0.390625 -0.453125q0.125 -0.078125 0.265625 0q0.3125 -0.046875 0.59375 0q0.28125 0.046875 0.46875 0.140625q0.1875 0.09375 0.203125 0.234375q0.03125 0.046875 0 0.40625q-0.015625 0.34375 -0.078125 0.671875q-0.125 0.953125 -0.15625 1.765625q-0.015625 0.8125 0.0625 1.75q0.09375 0.921875 0.21875 2.265625l0.328125 1.90625l0.328125 -0.6875q0.203125 -0.421875 0.359375 -0.859375q0.171875 -0.4375 0.359375 -0.8125q0.140625 -0.421875 0.3125 -0.828125q0.1875 -0.40625 0.1875 -0.40625q0.171875 -0.21875 0.328125 -0.625q0.15625 -0.40625 0.296875 -0.8125q0.140625 -0.40625 0.203125 -0.609375q0.046875 -0.125 0.125 -0.40625q0.09375 -0.28125 0.1875 -0.578125q0.109375 -0.296875 0.203125 -0.53125q0.078125 -0.296875 0.15625 -0.609375q0.078125 -0.328125 0.15625 -0.59375q0.09375 -0.28125 0.109375 -0.359375q0 0 0.078125 -0.078125q0.078125 -0.09375 0.171875 -0.3125l0.625 -0.15625q0.390625 0.328125 0.453125 0.625q0.0625 0.296875 -0.171875 0.796875q-0.015625 0.234375 -0.09375 0.4375q-0.078125 0.1875 -0.078125 0.1875q0.125 0 0.046875 0.21875q-0.0625 0.203125 -0.09375 0.390625q-0.03125 0.125 -0.125 0.453125q-0.078125 0.328125 -0.171875 0.6875q-0.09375 0.359375 -0.171875 0.59375q-0.03125 0.171875 -0.203125 0.578125q-0.171875 0.40625 -0.40625 0.921875q-0.234375 0.515625 -0.46875 1.046875q-0.234375 0.515625 -0.421875 0.890625q-0.171875 0.375 -0.25 0.5q-0.0625 0.109375 -0.125 0.28125q-0.0625 0.171875 -0.15625 0.265625q-0.09375 0.296875 -0.34375 0.6875q-0.25 0.390625 -0.53125 0.75q-0.28125 0.359375 -0.46875 0.546875q-0.25 0.265625 -0.515625 0.328125q-0.265625 0.0625 -0.5625 -0.140625q-0.28125 -0.203125 -0.625 -0.71875q-0.078125 -0.1875 -0.171875 -0.6875q-0.078125 -0.515625 -0.203125 -1.15625q-0.109375 -0.65625 -0.203125 -1.265625q-0.09375 -0.625 -0.125 -1.015625q-0.078125 -0.375 -0.046875 -0.609375q0.03125 -0.25 0.015625 -0.5q0 -0.296875 0.015625 -0.46875q0.015625 -0.171875 0.03125 -0.34375q0.015625 -0.1875 0.015625 -0.453125q0.015625 -0.28125 -0.0625 -0.28125q-0.078125 0 -0.34375 0.4375q-0.265625 0.46875 -0.484375 0.84375q-0.21875 0.359375 -0.296875 0.546875q-0.078125 0.203125 -0.28125 0.671875q-0.1875 0.46875 -0.421875 1.03125q-0.234375 0.546875 -0.453125 1.046875q-0.203125 0.484375 -0.3125 0.75q-0.140625 0.28125 -0.28125 0.765625q-0.140625 0.484375 -0.28125 1.015625q-0.140625 0.53125 -0.21875 0.9375q-0.078125 0.390625 -0.125 0.5q0 0.046875 -0.09375 0.21875q-0.09375 0.1875 -0.15625 0.40625zm10.905746 -1.0625q-0.21875 0.046875 -0.5 -0.109375q-0.265625 -0.171875 -0.484375 -0.421875q-0.203125 -0.265625 -0.265625 -0.484375q-0.078125 -0.390625 0.0625 -0.96875q0.140625 -0.578125 0.453125 -1.21875q0.3125 -0.640625 0.75 -1.265625q0.453125 -0.625 0.984375 -1.109375q0.53125 -0.5 1.109375 -0.734375q0.234375 -0.15625 0.359375 -0.203125q0.125 -0.046875 0.25 0q0.125 0.046875 0.390625 0.203125q0.265625 0.078125 0.484375 0.171875q0.234375 0.09375 0.4375 0.375q0.140625 0.28125 0.21875 0.5625q0.078125 0.265625 0.140625 0.625q0.140625 0.46875 0.09375 0.609375q-0.03125 0.140625 -0.09375 0.21875q-0.15625 0.171875 -0.078125 0.171875q0 0 -0.015625 0.078125q0 0.0625 -0.078125 0.1875q-0.125 0.40625 -0.203125 0.8125q-0.0625 0.390625 0.015625 0.671875q0.140625 0.40625 0.4375 0.484375q0.3125 0.0625 0.71875 -0.34375q0.203125 -0.140625 0.4375 -0.21875q0.234375 -0.078125 0.234375 0.078125q0 0 0.046875 0.046875q0.0625 0.03125 0.140625 0.03125q0.09375 0 0.09375 0.15625q0 0.15625 -0.046875 0.34375q-0.046875 0.171875 -0.140625 0.328125q-0.28125 0.28125 -0.28125 0.375q0 0 -0.0625 0.0625q-0.0625 0.0625 -0.21875 0.203125q-0.328125 0.203125 -0.84375 0.203125q-0.515625 0 -0.796875 -0.203125q-0.28125 -0.21875 -0.546875 -0.53125q-0.25 -0.3125 -0.328125 -0.578125l-0.09375 -0.1875l-0.546875 0.359375q-0.203125 0.203125 -0.34375 0.34375q-0.140625 0.125 -0.203125 0.203125q-0.0625 0.0625 -0.125 0.125q-0.0625 0.046875 -0.140625 0.046875q-0.078125 0 -0.140625 0q-0.046875 0 -0.046875 0q0 0.078125 -0.234375 0.203125q-0.234375 0.125 -0.53125 0.21875q-0.28125 0.078125 -0.46875 0.078125zm0.203125 -1.390625q0.109375 0 0.359375 -0.140625q0.265625 -0.15625 0.5625 -0.375q0.3125 -0.234375 0.5625 -0.4375q0.25 -0.21875 0.359375 -0.34375q0.078125 -0.078125 0.203125 -0.25q0.125 -0.171875 0.25 -0.296875q0.421875 -0.484375 0.546875 -0.875q0.140625 -0.390625 -0.0625 -0.734375q-0.078125 -0.203125 -0.1875 -0.21875q-0.109375 -0.015625 -0.46875 0.125q-0.21875 0.140625 -0.5 0.453125q-0.28125 0.3125 -0.59375 0.734375q-0.296875 0.40625 -0.546875 0.84375q-0.25 0.421875 -0.421875 0.78125q-0.15625 0.34375 -0.15625 0.546875q0 0.078125 0.046875 0.140625q0.046875 0.046875 0.046875 0.046875zm8.823502 5.453125q-0.328125 0.171875 -0.828125 0.078125q-0.5 -0.078125 -0.96875 -0.328125q-0.46875 -0.234375 -0.796875 -0.578125q-0.140625 -0.15625 -0.28125 -0.4375q-0.140625 -0.265625 -0.1875 -0.5q-0.046875 -0.234375 0.0625 -0.296875q0.15625 -0.078125 0.34375 -0.078125q0.203125 0 0.359375 0.046875q0.15625 0.0625 0.15625 0.125q0.171875 0.15625 0.390625 0.3125q0.21875 0.15625 0.40625 0.234375q0.296875 0.109375 0.5 0.0625q0.21875 -0.046875 0.375 -0.203125q0.21875 -0.234375 0.34375 -0.5625q0.140625 -0.328125 0.265625 -0.8125l0.046875 -0.234375q0.1875 -0.859375 0.375 -1.671875q0.1875 -0.8125 0.3125 -1.203125q0.03125 -0.15625 -0.015625 -0.1875q-0.046875 -0.03125 -0.140625 0.0625q-0.09375 0.03125 -0.21875 0.09375q-0.125 0.046875 -0.234375 0.125q-0.25 0.109375 -0.453125 0.203125q-0.1875 0.078125 -0.328125 0.109375q-0.234375 0.046875 -0.34375 0.03125q-0.109375 -0.015625 -0.15625 -0.015625q-0.171875 0.046875 -0.5 -0.078125q-0.328125 -0.125 -0.5625 -0.328125q-0.171875 -0.1875 -0.25 -0.34375q-0.078125 -0.15625 -0.09375 -0.34375q-0.015625 -0.1875 -0.015625 -0.40625q0 -0.296875 0.296875 -0.953125q0.296875 -0.671875 0.84375 -1.3125q0.34375 -0.34375 0.90625 -0.703125q0.578125 -0.375 1.171875 -0.609375q0.609375 -0.25 0.96875 -0.25q0.125 0 0.25 0.03125q0.125 0.03125 0.265625 0.125q0.296875 0.078125 0.53125 0.3125q0.25 0.234375 0.46875 0.671875q0.15625 0.296875 0.234375 0.609375q0.078125 0.3125 0.078125 0.65625q0 0.296875 -0.09375 0.515625q-0.078125 0.21875 -0.203125 0.28125q-0.03125 0.03125 -0.078125 0.046875q-0.046875 0 -0.125 0.015625q-0.046875 0.015625 -0.140625 0.03125q-0.09375 0.046875 -0.1875 0.171875q-0.09375 0.125 -0.171875 0.421875q-0.015625 0.09375 -0.046875 0.203125q-0.03125 0.109375 -0.0625 0.203125q0 0.03125 -0.046875 0.09375q-0.046875 0.0625 -0.046875 0.140625q-0.015625 0.109375 -0.0625 0.1875q-0.03125 0.0625 -0.0625 0.125q-0.046875 0.09375 -0.0625 0.171875q0 0.078125 0 0.15625l-0.078125 0.203125q-0.046875 0.1875 -0.09375 0.34375q-0.046875 0.140625 -0.046875 0.171875l-0.078125 0.375q-0.046875 0.1875 -0.09375 0.359375q-0.046875 0.171875 -0.078125 0.359375q-0.03125 0.171875 -0.09375 0.453125q-0.40625 1.625 -0.8125 2.453125q-0.390625 0.84375 -0.8125 1.0625zm-1.15625 -7.09375q0.1875 0.34375 0.796875 0.25q0.609375 -0.09375 1.375 -0.734375q0.34375 -0.28125 0.609375 -0.640625q0.265625 -0.359375 0.375 -0.75q0.09375 -0.3125 0.046875 -0.421875q-0.046875 -0.125 -0.296875 -0.140625q-0.34375 -0.015625 -0.765625 0.15625q-0.421875 0.15625 -0.875 0.4375q-0.203125 0.28125 -0.359375 0.375q-0.140625 0.09375 -0.203125 0.109375q-0.0625 0.015625 -0.03125 0.03125q-0.015625 0.078125 -0.0625 0.140625q-0.03125 0.046875 -0.078125 0.09375q-0.140625 0.1875 -0.28125 0.390625q-0.140625 0.1875 -0.203125 0.375q-0.0625 0.1875 -0.046875 0.328125zm7.703659 4.25q-0.578125 -0.09375 -1.03125 -0.390625q-0.453125 -0.296875 -0.640625 -0.796875q-0.140625 -0.34375 -0.25 -0.75q-0.109375 -0.40625 0.078125 -1.03125q0.0625 -0.625 0.203125 -1.28125q0.140625 -0.671875 0.375 -1.359375q0 0 0.09375 -0.3125q0.09375 -0.328125 0.21875 -0.640625q0.234375 -0.703125 0.65625 -1.609375q0.4375 -0.921875 0.9375 -1.828125q0.5 -0.90625 0.96875 -1.578125q0.484375 -0.6875 0.796875 -0.9375q0.171875 -0.140625 0.453125 -0.234375q0.296875 -0.09375 0.53125 -0.078125q0.25 0 0.25 0.140625q-0.03125 0.125 -0.03125 0.140625q0 0.015625 0.078125 0.03125q0.15625 0.015625 0.09375 0.28125q-0.0625 0.265625 -0.265625 0.578125q-0.203125 0.296875 -0.46875 0.453125q0 0 0 0q0 0 0 0q0 0 -0.046875 0.125q-0.03125 0.109375 -0.234375 0.265625q-0.078125 0.21875 -0.15625 0.375q-0.0625 0.140625 -0.0625 0.140625q0 0 -0.09375 0.140625q-0.09375 0.140625 -0.1875 0.359375q-0.171875 0.21875 -0.28125 0.375q-0.09375 0.15625 -0.09375 0.25q0 0 -0.109375 0.203125q-0.09375 0.1875 -0.203125 0.40625q-0.09375 0.203125 -0.09375 0.265625q0 0 -0.078125 0.046875q-0.0625 0.046875 -0.0625 0.046875q0 0.09375 -0.109375 0.421875q-0.109375 0.328125 -0.3125 0.625q-0.25 0.515625 -0.390625 1.03125q-0.140625 0.5 -0.234375 0.640625q-0.03125 0.078125 -0.046875 0.203125q-0.078125 0.078125 -0.171875 0.375q-0.09375 0.296875 -0.125 0.78125q-0.140625 0.40625 -0.25 0.6875q-0.09375 0.265625 -0.09375 0.265625q-0.046875 0.125 -0.046875 0.34375q0 0.21875 0.03125 0.484375q0.03125 0.265625 0.0625 0.5q0.140625 0.21875 0.328125 0.265625q0.1875 0.046875 0.765625 0.015625q0.21875 0.03125 0.515625 -0.015625q0.3125 -0.046875 0.546875 0q0.171875 0 0.515625 -0.03125q0.359375 -0.03125 0.703125 -0.078125q0.578125 -0.0625 0.78125 0.03125q0.21875 0.078125 0.359375 0.21875q0.21875 0.3125 0.03125 0.5625q-0.171875 0.234375 -0.515625 0.328125q-0.71875 0.171875 -1.453125 0.3125q-0.71875 0.140625 -1.3125 0.203125q-0.59375 0.0625 -0.921875 0.03125zm5.869446 0.640625q-0.328125 -0.203125 -0.4375 -0.4375q-0.09375 -0.234375 -0.0625 -0.53125q0.03125 -0.28125 0.125 -0.640625q0.140625 -0.59375 0.3125 -0.984375q0.1875 -0.40625 0.359375 -0.84375q0.1875 -0.4375 0.3125 -1.140625q0.296875 -0.6875 0.53125 -1.296875q0.234375 -0.625 0.359375 -1.015625q0.140625 -0.390625 0.140625 -0.390625q0.015625 -0.0625 0.15625 -0.375q0.15625 -0.328125 0.359375 -0.78125q0.21875 -0.46875 0.4375 -0.921875q0.3125 -0.90625 0.5625 -1.53125q0.25 -0.625 0.5 -1.125q0.265625 -0.515625 0.609375 -1.03125q0.21875 -0.390625 0.59375 -0.46875q0.375 -0.078125 0.71875 0.0625q0.34375 0.125 0.453125 0.5q0.09375 0.1875 0.15625 0.4375q0.078125 0.25 0.125 0.75q0.0625 0.484375 0.078125 1.375q0.03125 1.0625 0.03125 2.0q0 0.921875 0.0625 1.71875q0.0625 0.796875 0.21875 1.40625q0.0625 0.34375 0.140625 0.828125q0.078125 0.46875 0.15625 0.9375q0.078125 0.453125 0.15625 0.765625q0.09375 0.3125 0.171875 0.3125q0.09375 0 0.234375 -0.1875q0.140625 -0.1875 0.34375 -0.75q0.21875 -0.5625 0.546875 -1.671875q0.34375 -1.109375 0.796875 -2.9375q0.09375 -0.3125 0.25 -1.015625q0.15625 -0.71875 0.234375 -1.453125q0.125 -0.453125 0.25 -1.015625q0.140625 -0.5625 0.234375 -0.984375q0.109375 -0.4375 0.109375 -0.5q0 -0.125 0 -0.21875q0.015625 -0.09375 0 -0.1875q0.09375 0 0.171875 -0.25q0.078125 -0.25 0.078125 -0.4375q0 -0.3125 0.078125 -0.5q0.078125 -0.203125 0.171875 -0.296875q0.15625 -0.296875 0.4375 -0.296875q0.296875 0 0.546875 0.171875q0.265625 0.15625 0.328125 0.40625q0.03125 0.203125 -0.109375 0.921875q-0.140625 0.71875 -0.421875 1.921875q0 0.203125 -0.109375 0.671875q-0.109375 0.46875 -0.234375 1.0q-0.109375 0.515625 -0.171875 0.890625q-0.078125 0.484375 -0.171875 0.90625q-0.09375 0.421875 -0.1875 0.390625q-0.484375 2.109375 -1.015625 3.59375q-0.53125 1.484375 -0.9375 2.421875q-0.453125 1.03125 -1.09375 1.28125q-0.640625 0.265625 -1.234375 -0.5q-0.359375 -0.484375 -0.59375 -0.953125q-0.21875 -0.46875 -0.375 -1.09375q-0.140625 -0.640625 -0.265625 -1.609375q-0.171875 -0.78125 -0.234375 -1.546875q-0.0625 -0.765625 -0.0625 -1.5625q0 -0.8125 0.015625 -1.703125q0.015625 -1.0 -0.078125 -1.21875q-0.09375 -0.234375 -0.265625 0.140625q-0.171875 0.375 -0.453125 1.140625q-0.140625 0.359375 -0.328125 0.859375q-0.1875 0.484375 -0.390625 0.953125q-0.1875 0.46875 -0.3125 0.828125q-0.125 0.34375 -0.171875 0.4375q-0.109375 0.21875 -0.265625 0.578125q-0.140625 0.359375 -0.234375 0.78125q-0.671875 1.75 -1.0 2.9375q-0.328125 1.1875 -0.46875 1.59375q-0.1875 0.515625 -0.375 0.65625q-0.171875 0.140625 -0.59375 -0.171875z" fill-rule="nonzero"/></g></svg>